<?xml version="1.0" standalone="no"?>
<!DOCTYPE svg PUBLIC "-//W3C//DTD SVG 20010904//EN"
 "http://www.w3.org/TR/2001/REC-SVG-20010904/DTD/svg10.dtd">
<svg version="1.0" xmlns="http://www.w3.org/2000/svg"
 width="1324.000000pt" height="1127.000000pt" viewBox="0 0 1324.000000 1127.000000"
 preserveAspectRatio="xMidYMid meet">

<g transform="translate(0.000000,1127.000000) scale(0.100000,-0.100000)"
fill="#000000" stroke="none">
<path d="M2922 11249 c-304 -22 -685 -116 -957 -237 -387 -171 -646 -339 -935
-605 -203 -186 -332 -340 -517 -617 -149 -223 -231 -393 -333 -686 -120 -349
-170 -652 -170 -1039 0 -419 66 -787 207 -1145 65 -168 65 -160 7 -161 l-49
-1 66 -24 65 -25 52 -105 c127 -255 270 -455 504 -706 236 -253 370 -366 631
-535 218 -141 441 -246 707 -334 l145 -48 3 -165 2 -166 -132 0 c-321 0 -526
-68 -684 -225 -164 -164 -231 -369 -254 -778 -9 -157 1 -640 15 -719 4 -26 0
-30 -69 -63 -195 -93 -336 -259 -392 -465 -27 -100 -25 -274 5 -370 39 -128
86 -206 181 -301 163 -164 363 -236 583 -208 168 21 288 80 412 204 124 124
185 247 206 417 42 335 -180 667 -506 758 -55 16 -60 20 -67 51 -15 63 -22
676 -9 799 21 213 66 352 138 424 83 83 189 115 416 123 l157 6 0 -279 c1
-425 20 -613 86 -831 64 -211 158 -381 294 -528 189 -204 383 -343 565 -404
118 -39 231 -53 483 -58 l242 -6 0 -716 c0 -458 4 -732 11 -761 31 -135 133
-261 265 -326 76 -38 80 -39 189 -39 104 0 114 2 177 33 92 45 206 150 467
428 124 131 285 298 359 369 74 72 229 231 345 355 347 369 627 645 667 658
47 14 115 21 127 13 7 -4 7 -134 2 -376 -4 -203 -8 -384 -8 -401 -1 -28 -5
-31 -60 -48 -197 -59 -378 -241 -449 -453 -23 -69 -26 -94 -26 -218 -1 -128 2
-147 27 -220 175 -500 789 -648 1165 -282 217 212 274 543 142 813 -79 162
-229 296 -393 354 l-52 18 3 219 c1 120 5 300 8 401 l7 182 542 0 542 0 6
-222 c6 -247 21 -360 68 -503 152 -460 538 -605 1390 -520 145 15 420 49 485
61 31 6 33 4 70 -68 82 -156 258 -292 440 -338 95 -24 251 -26 344 -4 324 76
558 393 537 729 -11 177 -79 328 -207 455 -88 87 -172 140 -285 177 -68 23
-98 26 -205 27 -144 1 -211 -13 -323 -70 -190 -95 -330 -274 -374 -477 -19
-88 4 -77 -220 -107 -623 -81 -961 -75 -1146 23 -160 84 -227 290 -227 698 l0
139 731 0 c693 0 736 1 830 20 603 123 1021 637 1098 1352 6 54 11 267 11 474
l0 376 173 -5 c191 -5 267 -20 332 -65 82 -57 115 -164 123 -403 l5 -156 -36
-7 c-20 -4 -71 -24 -114 -46 -406 -204 -518 -731 -229 -1082 92 -112 223 -195
366 -234 100 -27 274 -25 370 5 128 39 206 86 301 181 127 126 187 246 208
418 18 145 -17 315 -91 440 -75 126 -223 252 -355 301 l-61 23 -6 136 c-25
482 -138 688 -436 789 -112 38 -201 51 -402 60 l-148 6 0 442 0 442 198 7
c108 3 275 7 371 8 l174 3 28 -70 c79 -194 242 -345 444 -412 68 -23 98 -26
205 -27 140 -1 211 14 314 64 376 186 511 638 299 1003 -20 34 -70 96 -112
137 -135 133 -300 200 -495 200 -126 0 -207 -19 -316 -72 -69 -34 -103 -60
-176 -133 -93 -93 -143 -171 -179 -281 l-17 -52 -171 -6 c-95 -3 -261 -7 -369
-10 l-198 -4 0 257 0 258 103 7 c326 20 526 165 623 449 54 156 67 272 73 655
l6 353 58 24 c207 84 377 287 423 505 22 102 14 271 -16 360 -92 273 -310 453
-594 490 -103 14 -217 0 -326 -39 -481 -176 -618 -795 -255 -1156 90 -90 162
-136 273 -176 l77 -27 3 -243 c6 -435 -36 -678 -130 -766 -48 -45 -175 -83
-279 -83 l-36 0 -6 283 c-6 291 -18 415 -57 569 -26 100 -56 154 -112 203
-146 125 -365 60 -456 -135 -31 -65 -33 -143 -8 -258 14 -66 16 -279 16 -2061
0 -2197 5 -2031 -65 -2178 -59 -126 -141 -234 -233 -306 -105 -82 -198 -118
-363 -143 -98 -14 -264 -15 -1612 -9 -826 4 -1569 6 -1652 5 -168 -2 -280 -19
-341 -52 -25 -14 -343 -330 -815 -810 l-774 -787 -6 662 c-4 419 -11 679 -17
709 -20 84 -53 147 -99 188 -81 71 -94 73 -503 81 -388 7 -436 12 -560 62
-135 55 -255 152 -332 268 -45 68 -93 181 -118 278 -19 71 -20 111 -20 745 l0
671 199 -3 c385 -6 785 60 1130 188 l82 30 970 0 969 0 0 -905 0 -905 248 0
c137 0 317 3 400 7 l152 6 0 1001 c0 551 -3 1301 -7 1669 l-6 667 -400 0 -400
0 4 -367 4 -368 -377 -3 c-208 -1 -378 0 -378 3 0 3 35 47 78 98 180 214 319
428 434 667 49 102 93 192 97 200 7 13 134 15 1052 15 l1044 0 3 -482 2 -483
-450 0 -450 0 0 -193 c0 -107 3 -289 7 -405 l6 -212 821 2 821 3 3 1292 2
1292 -1330 -6 -1330 -6 5 29 c15 91 25 226 25 347 l0 137 898 0 c1044 -1 2339
-16 2497 -30 83 -7 135 -18 210 -44 120 -43 170 -45 245 -10 160 74 240 280
169 434 -50 106 -171 195 -329 240 -176 49 -186 50 -1714 50 l-1429 0 7 123
c13 243 58 432 128 538 120 180 387 239 1018 225 811 -18 1148 -26 1277 -32
l141 -6 6 -34 c4 -18 28 -75 53 -126 87 -174 262 -316 448 -363 325 -83 663
71 809 369 60 121 80 219 73 350 -9 186 -75 334 -209 468 -130 129 -303 201
-488 201 -52 1 -121 -5 -153 -12 -206 -45 -388 -185 -481 -370 -23 -47 -45
-96 -48 -109 -6 -22 -10 -23 -80 -18 -141 11 -1067 30 -1458 30 -412 1 -493
-5 -675 -46 -334 -76 -540 -262 -638 -573 -35 -113 -66 -306 -75 -470 l-7
-140 -144 0 -144 0 -19 70 c-57 213 -187 532 -283 700 -157 272 -361 540 -546
721 -124 120 -438 372 -558 448 -318 200 -696 350 -1067 425 -256 52 -613 72
-912 50z m534 -475 c23 -18 65 -60 94 -94 l52 -60 -106 0 -106 0 0 101 c0 111
-3 108 66 53z m-446 -59 l0 -95 -101 0 -100 0 20 28 c26 37 158 162 171 162 6
0 10 -40 10 -95z m-845 -492 c-38 -97 -102 -305 -145 -470 l-53 -202 -264 -3
c-153 -2 -263 1 -263 6 0 5 27 61 61 125 67 130 216 356 315 479 l65 82 146 0
c134 0 145 -1 138 -17z m845 -332 l0 -348 -322 -5 c-178 -3 -326 -4 -330 -2
-16 10 119 453 192 627 l32 77 214 0 214 0 0 -349z m813 337 c82 -199 129
-328 173 -482 30 -104 54 -193 54 -197 0 -5 -148 -9 -330 -9 l-330 0 0 350 0
350 214 0 c162 0 215 -3 219 -12z m782 -88 c44 -56 110 -145 146 -200 73 -111
194 -331 204 -373 l7 -27 -262 2 -262 3 -42 170 c-24 94 -70 250 -103 348
l-59 177 146 0 146 0 79 -100z m-3261 23 c-101 -152 -202 -339 -274 -508 l-47
-110 -101 -3 c-65 -2 -102 1 -102 8 0 18 109 184 177 270 68 85 344 370 358
370 4 0 -1 -12 -11 -27z m3971 -237 c99 -114 285 -361 285 -378 0 -5 -47 -8
-106 -8 l-105 0 -26 58 c-78 174 -149 312 -226 440 -48 79 -87 146 -87 149 0
16 171 -153 265 -261z m5037 236 c74 -37 134 -96 170 -170 29 -59 33 -76 33
-152 0 -71 -4 -94 -27 -142 -87 -187 -303 -267 -479 -177 -63 32 -135 105
-166 168 -25 49 -28 68 -28 151 0 89 2 99 34 158 42 77 114 144 184 171 74 29
212 26 279 -7z m-9462 -1001 c0 -4 -13 -59 -30 -122 -49 -190 -89 -452 -106
-691 l-7 -98 -178 0 c-99 0 -179 3 -179 8 0 4 7 64 15 132 27 237 78 449 157
662 l40 107 82 4 c176 7 206 7 206 -2z m1003 2 c3 -5 -1 -48 -9 -98 -17 -115
-52 -500 -62 -675 l-7 -135 -344 -3 -344 -2 7 102 c14 202 64 492 122 710 l27
98 246 3 c135 1 272 3 303 5 31 1 59 -1 61 -5z m2232 -15 c22 -102 63 -515 72
-735 l6 -163 -406 0 -407 0 0 455 0 455 243 3 c133 1 297 3 364 5 120 2 123 1
128 -20z m997 -1 c10 -17 65 -232 87 -342 41 -211 75 -544 56 -551 -5 -2 -161
-3 -345 -2 l-335 3 -7 166 c-6 165 -27 397 -54 603 -8 61 -14 118 -14 128 0
18 11 19 303 12 189 -4 305 -11 309 -17z m-2112 -442 l0 -455 -406 0 -406 0 6
138 c13 248 50 641 72 745 l6 27 364 0 364 0 0 -455z m2806 418 c39 -92 114
-339 138 -453 26 -127 56 -337 56 -391 l0 -29 -174 0 c-197 0 -186 -5 -186 88
0 136 -54 489 -109 712 l-27 110 143 0 143 0 16 -37z m6037 -127 c71 -36 130
-99 165 -174 23 -48 27 -71 27 -142 0 -72 -4 -94 -29 -147 -67 -146 -229 -233
-380 -203 -185 36 -308 194 -293 377 10 129 103 256 220 302 81 32 212 26 290
-13z m-11096 -1271 c16 -194 56 -445 99 -614 18 -74 32 -136 31 -137 -1 -1
-64 -5 -139 -9 l-138 -7 -20 47 c-91 213 -175 552 -195 793 l-7 82 178 -2 179
-3 12 -150z m1065 0 c8 -158 40 -495 62 -655 8 -52 12 -98 9 -102 -2 -5 -139
-8 -303 -8 l-299 0 -25 83 c-64 212 -114 495 -132 740 l-7 97 344 -2 344 -3 7
-150z m1188 -305 l0 -460 -359 0 c-236 0 -362 4 -366 10 -21 34 -85 698 -85
877 l0 33 405 0 405 0 0 -460z m1187 298 c-9 -210 -51 -641 -72 -736 l-5 -22
-363 2 -362 3 -3 458 -2 457 406 0 407 0 -6 -162z m1075 87 c-8 -182 -60 -487
-124 -720 l-33 -120 -304 -3 -304 -2 7 52 c3 29 13 103 21 163 17 135 45 506
45 613 0 43 3 82 7 85 4 4 160 6 347 5 l341 -3 -3 -70z m738 38 c0 -59 -36
-286 -65 -418 -31 -137 -62 -240 -112 -372 l-36 -93 -138 0 c-114 0 -139 3
-139 14 0 8 13 70 30 138 40 166 66 326 86 520 8 90 18 182 20 206 l5 42 175
0 174 0 0 -37z m-4907 -1445 c53 -106 132 -253 176 -326 l80 -133 -116 108
c-120 112 -219 223 -315 354 -65 87 -118 169 -118 181 0 4 44 8 99 8 l98 0 96
-192z m883 87 c29 -127 80 -296 138 -454 25 -69 46 -128 46 -133 0 -4 -64 -8
-142 -8 l-143 1 -160 218 c-114 155 -178 254 -222 341 -35 68 -63 127 -63 132
0 4 118 7 262 6 l261 -3 23 -100z m1032 -247 l2 -348 -215 0 -216 0 -15 35
c-78 188 -214 603 -214 654 0 8 98 10 328 9 l327 -3 3 -347z m1022 336 c0 -60
-105 -407 -178 -584 l-38 -95 -217 -3 -217 -2 0 350 0 350 325 0 c288 0 325
-2 325 -16z m930 10 c0 -19 -132 -259 -200 -363 -134 -204 -225 -317 -261
-325 -50 -10 -269 -7 -269 3 0 6 13 47 30 93 42 116 102 322 135 458 15 63 29
121 31 128 3 9 65 12 269 12 146 0 265 -3 265 -6z m619 -16 c-23 -45 -144
-215 -212 -298 -73 -89 -316 -334 -324 -327 -2 3 33 65 78 138 78 128 190 343
236 457 l22 52 106 0 106 0 -12 -22z m7094 -373 c68 -33 140 -106 170 -173 18
-38 22 -65 22 -147 0 -86 -3 -106 -24 -145 -55 -105 -127 -164 -235 -195 -250
-72 -496 171 -432 425 29 114 104 200 215 247 80 34 201 29 284 -12z m-10328
-695 c3 -6 -1 -7 -9 -4 -18 7 -21 14 -7 14 6 0 13 -4 16 -10z m655 -90 c0 -98
-1 -100 -20 -90 -27 15 -130 117 -159 158 l-22 32 100 0 101 0 0 -100z m561
63 c-54 -67 -75 -89 -116 -120 -69 -51 -65 -54 -65 56 l0 101 106 0 106 0 -31
-37z m8456 -2035 c81 -30 171 -121 202 -203 18 -48 22 -75 19 -140 -6 -142
-77 -248 -206 -308 -55 -26 -77 -31 -141 -30 -181 0 -319 116 -352 295 -31
171 79 346 251 399 53 16 168 10 227 -13z m-10422 -873 c107 -28 182 -90 235
-195 18 -33 25 -67 28 -130 6 -118 -19 -183 -102 -266 -81 -81 -148 -107 -261
-102 -142 6 -248 77 -308 206 -26 56 -31 77 -30 141 1 170 102 302 263 345 72
19 103 19 175 1z m9250 -949 c157 -72 242 -243 201 -406 -69 -273 -411 -362
-602 -158 -63 67 -87 125 -92 223 -5 92 16 161 69 233 93 127 279 175 424 108z
m-3923 -578 c72 -33 142 -103 176 -176 23 -49 27 -70 27 -147 0 -78 -4 -97
-28 -147 -36 -74 -102 -139 -175 -174 -49 -25 -69 -28 -147 -28 -78 0 -98 3
-147 28 -73 35 -139 100 -175 174 -24 50 -28 68 -28 147 0 99 18 153 74 224
97 122 279 165 423 99z"/>
<path d="M7360 4610 l0 -400 460 0 460 0 0 -475 0 -475 370 0 370 0 -2 873 -3
872 -827 3 -828 2 0 -400z"/>
<path d="M4257 4828 c97 -250 95 -198 15 -460 l-69 -228 188 0 187 0 20 78
c12 42 29 111 40 152 l18 75 18 -55 c10 -30 36 -99 58 -152 l40 -98 179 0 c99
0 179 2 179 5 0 2 -41 96 -91 207 -50 112 -96 215 -101 230 -8 22 1 56 56 204
36 97 66 178 66 180 0 3 -73 3 -162 2 l-161 -3 -36 -102 c-20 -56 -39 -105
-42 -108 -4 -3 -24 44 -45 105 l-38 110 -187 0 -187 0 55 -142z"/>
<path d="M5170 4555 l0 -415 195 0 195 0 0 415 0 415 -195 0 -195 0 0 -415z"/>
<path d="M5700 4555 l0 -415 195 0 195 0 0 415 0 415 -195 0 -195 0 0 -415z"/>
<path d="M4192 3658 l3 -403 955 0 955 0 3 403 2 402 -960 0 -960 0 2 -402z"/>
</g>
</svg>
