<svg version="1.0" xmlns="http://www.w3.org/2000/svg" width="1765.333" height="1502.667" viewBox="0 0 1324 1127"><path d="M292.2 2.1c-30.4 2.2-68.5 11.6-95.7 23.7-38.7 17.1-64.6 33.9-93.5 60.5-20.3 18.6-33.2 34-51.7 61.7-14.9 22.3-23.1 39.3-33.3 68.6C6 251.5 1 281.8 1 320.5c0 41.9 6.6 78.7 20.7 114.5 6.5 16.8 6.5 16 .7 16.1l-4.9.1 6.6 2.4 6.5 2.5 5.2 10.5c12.7 25.5 27 45.5 50.4 70.6 23.6 25.3 37 36.6 63.1 53.5 21.8 14.1 44.1 24.6 70.7 33.4l14.5 4.8.3 16.5.2 16.6h-13.2c-32.1 0-52.6 6.8-68.4 22.5-16.4 16.4-23.1 36.9-25.4 77.8-.9 15.7.1 64 1.5 71.9.4 2.6 0 3-6.9 6.3-19.5 9.3-33.6 25.9-39.2 46.5-2.7 10-2.5 27.4.5 37 3.9 12.8 8.6 20.6 18.1 30.1 16.3 16.4 36.3 23.6 58.3 20.8 16.8-2.1 28.8-8 41.2-20.4 12.4-12.4 18.5-24.7 20.6-41.7 4.2-33.5-18-66.7-50.6-75.8-5.5-1.6-6-2-6.7-5.1-1.5-6.3-2.2-67.6-.9-79.9 2.1-21.3 6.6-35.2 13.8-42.4 8.3-8.3 18.9-11.5 41.6-12.3l15.7-.6v27.9c.1 42.5 2 61.3 8.6 83.1 6.4 21.1 15.8 38.1 29.4 52.8 18.9 20.4 38.3 34.3 56.5 40.4 11.8 3.9 23.1 5.3 48.3 5.8l24.2.6v71.6c0 45.8.4 73.2 1.1 76.1 3.1 13.5 13.3 26.1 26.5 32.6 7.6 3.8 8 3.9 18.9 3.9 10.4 0 11.4-.2 17.7-3.3 9.2-4.5 20.6-15 46.7-42.8 12.4-13.1 28.5-29.8 35.9-36.9 7.4-7.2 22.9-23.1 34.5-35.5 34.7-36.9 62.7-64.5 66.7-65.8 4.7-1.4 11.5-2.1 12.7-1.3.7.4.7 13.4.2 37.6-.4 20.3-.8 38.4-.8 40.1-.1 2.8-.5 3.1-6 4.8-19.7 5.9-37.8 24.1-44.9 45.3-2.3 6.9-2.6 9.4-2.6 21.8-.1 12.8.2 14.7 2.7 22 17.5 50 78.9 64.8 116.5 28.2 21.7-21.2 27.4-54.3 14.2-81.3-7.9-16.2-22.9-29.6-39.3-35.4l-5.2-1.8.3-21.9c.1-12 .5-30 .8-40.1l.7-18.2h108.4l.6 22.2c.6 24.7 2.1 36 6.8 50.3 15.2 46 53.8 60.5 139 52 14.5-1.5 42-4.9 48.5-6.1 3.1-.6 3.3-.4 7 6.8 8.2 15.6 25.8 29.2 44 33.8 9.5 2.4 25.1 2.6 34.4.4 32.4-7.6 55.8-39.3 53.7-72.9-1.1-17.7-7.9-32.8-20.7-45.5-8.8-8.7-17.2-14-28.5-17.7-6.8-2.3-9.8-2.6-20.5-2.7-14.4-.1-21.1 1.3-32.3 7-19 9.5-33 27.4-37.4 47.7-1.9 8.8.4 7.7-22 10.7-62.3 8.1-96.1 7.5-114.6-2.3-16-8.4-22.7-29-22.7-69.8V907h73.1c69.3 0 73.6-.1 83-2 60.3-12.3 102.1-63.7 109.8-135.2.6-5.4 1.1-26.7 1.1-47.4v-37.6l17.3.5c19.1.5 26.7 2 33.2 6.5 8.2 5.7 11.5 16.4 12.3 40.3l.5 15.6-3.6.7c-2 .4-7.1 2.4-11.4 4.6-40.6 20.4-51.8 73.1-22.9 108.2 9.2 11.2 22.3 19.5 36.6 23.4 10 2.7 27.4 2.5 37-.5 12.8-3.9 20.6-8.6 30.1-18.1 12.7-12.6 18.7-24.6 20.8-41.8 1.8-14.5-1.7-31.5-9.1-44-7.5-12.6-22.3-25.2-35.5-30.1l-6.1-2.3-.6-13.6c-2.5-48.2-13.8-68.8-43.6-78.9-11.2-3.8-20.1-5.1-40.2-6l-14.8-.6v-88.4l19.8-.7c10.8-.3 27.5-.7 37.1-.8l17.4-.3 2.8 7c7.9 19.4 24.2 34.5 44.4 41.2 6.8 2.3 9.8 2.6 20.5 2.7 14 .1 21.1-1.4 31.4-6.4 37.6-18.6 51.1-63.8 29.9-100.3-2-3.4-7-9.6-11.2-13.7-13.5-13.3-30-20-49.5-20-12.6 0-20.7 1.9-31.6 7.2-6.9 3.4-10.3 6-17.6 13.3-9.3 9.3-14.3 17.1-17.9 28.1l-1.7 5.2-17.1.6c-9.5.3-26.1.7-36.9 1l-19.8.4v-51.5l10.3-.7c32.6-2 52.6-16.5 62.3-44.9 5.4-15.6 6.7-27.2 7.3-65.5l.6-35.3 5.8-2.4c20.7-8.4 37.7-28.7 42.3-50.5 2.2-10.2 1.4-27.1-1.6-36-9.2-27.3-31-45.3-59.4-49-10.3-1.4-21.7 0-32.6 3.9-48.1 17.6-61.8 79.5-25.5 115.6 9 9 16.2 13.6 27.3 17.6l7.7 2.7.3 24.3c.6 43.5-3.6 67.8-13 76.6-4.8 4.5-17.5 8.3-27.9 8.3h-3.6l-.6-28.3c-.6-29.1-1.8-41.5-5.7-56.9-2.6-10-5.6-15.4-11.2-20.3-14.6-12.5-36.5-6-45.6 13.5-3.1 6.5-3.3 14.3-.8 25.8 1.4 6.6 1.6 27.9 1.6 206.1 0 219.7.5 203.1-6.5 217.8-5.9 12.6-14.1 23.4-23.3 30.6-10.5 8.2-19.8 11.8-36.3 14.3-9.8 1.4-26.4 1.5-161.2.9-82.6-.4-156.9-.6-165.2-.5-16.8.2-28 1.9-34.1 5.2-2.5 1.4-34.3 33-81.5 81l-77.4 78.7-.6-66.2c-.4-41.9-1.1-67.9-1.7-70.9-2-8.4-5.3-14.7-9.9-18.8-8.1-7.1-9.4-7.3-50.3-8.1-38.8-.7-43.6-1.2-56-6.2-13.5-5.5-25.5-15.2-33.2-26.8-4.5-6.8-9.3-18.1-11.8-27.8-1.9-7.1-2-11.1-2-74.5v-67.1l19.9.3c38.5.6 78.5-6 113-18.8l8.2-3H632v181h24.8c13.7 0 31.7-.3 40-.7l15.2-.6V697.6c0-55.1-.3-130.1-.7-166.9l-.6-66.7h-80l.4 36.7.4 36.8-37.7.3c-20.8.1-37.8 0-37.8-.3s3.5-4.7 7.8-9.8c18-21.4 31.9-42.8 43.4-66.7 4.9-10.2 9.3-19.2 9.7-20 .7-1.3 13.4-1.5 105.2-1.5h104.4l.3 48.2.2 48.3h-90v19.3c0 10.7.3 28.9.7 40.5l.6 21.2 82.1-.2 82.1-.3.3-129.2.2-129.2-133 .6-133 .6.5-2.9c1.5-9.1 2.5-22.6 2.5-34.7V308h89.8c104.4.1 233.9 1.6 249.7 3 8.3.7 13.5 1.8 21 4.4 12 4.3 17 4.5 24.5 1 16-7.4 24-28 16.9-43.4-5-10.6-17.1-19.5-32.9-24-17.6-4.9-18.6-5-171.4-5H694.7l.7-12.3c1.3-24.3 5.8-43.2 12.8-53.8 12-18 38.7-23.9 101.8-22.5 81.1 1.8 114.8 2.6 127.7 3.2l14.1.6.6 3.4c.4 1.8 2.8 7.5 5.3 12.6 8.7 17.4 26.2 31.6 44.8 36.3 32.5 8.3 66.3-7.1 80.9-36.9 6-12.1 8-21.9 7.3-35-.9-18.6-7.5-33.4-20.9-46.8-13-12.9-30.3-20.1-48.8-20.1-5.2-.1-12.1.5-15.3 1.2-20.6 4.5-38.8 18.5-48.1 37-2.3 4.7-4.5 9.6-4.8 10.9-.6 2.2-1 2.3-8 1.8-14.1-1.1-106.7-3-145.8-3-41.2-.1-49.3.5-67.5 4.6-33.4 7.6-54 26.2-63.8 57.3-3.5 11.3-6.6 30.6-7.5 47l-.7 14h-28.8l-1.9-7c-5.7-21.3-18.7-53.2-28.3-70-15.7-27.2-36.1-54-54.6-72.1-12.4-12-43.8-37.2-55.8-44.8-31.8-20-69.6-35-106.7-42.5-25.6-5.2-61.3-7.2-91.2-5zm53.4 47.5c2.3 1.8 6.5 6 9.4 9.4l5.2 6H339V54.9c0-11.1-.3-10.8 6.6-5.3zM301 55.5V65h-20.1l2-2.8C285.5 58.5 298.7 46 300 46c.6 0 1 4 1 9.5zm-84.5 49.2c-3.8 9.7-10.2 30.5-14.5 47l-5.3 20.2-26.4.3c-15.3.2-26.3-.1-26.3-.6s2.7-6.1 6.1-12.5c6.7-13 21.6-35.6 31.5-47.9l6.5-8.2h14.6c13.4 0 14.5.1 13.8 1.7zm84.5 33.2v34.8l-32.2.5c-17.8.3-32.6.4-33 .2-1.6-1 11.9-45.3 19.2-62.7l3.2-7.7H301v34.9zm81.3-33.7c8.2 19.9 12.9 32.8 17.3 48.2 3 10.4 5.4 19.3 5.4 19.7 0 .5-14.8.9-33 .9h-33v-70h21.4c16.2 0 21.5.3 21.9 1.2zm78.2 8.8c4.4 5.6 11 14.5 14.6 20 7.3 11.1 19.4 33.1 20.4 37.3l.7 2.7-26.2-.2-26.2-.3-4.2-17c-2.4-9.4-7-25-10.3-34.8l-5.9-17.7h29.2l7.9 10zm-326.1-2.3c-10.1 15.2-20.2 33.9-27.4 50.8l-4.7 11-10.1.3c-6.5.2-10.2-.1-10.2-.8 0-1.8 10.9-18.4 17.7-27 6.8-8.5 34.4-37 35.8-37 .4 0-.1 1.2-1.1 2.7zm397.1 23.7c9.9 11.4 28.5 36.1 28.5 37.8 0 .5-4.7.8-10.6.8h-10.5l-2.6-5.8c-7.8-17.4-14.9-31.2-22.6-44-4.8-7.9-8.7-14.6-8.7-14.9 0-1.6 17.1 15.3 26.5 26.1zm503.7-23.6c7.4 3.7 13.4 9.6 17 17 2.9 5.9 3.3 7.6 3.3 15.2 0 7.1-.4 9.4-2.7 14.2-8.7 18.7-30.3 26.7-47.9 17.7-6.3-3.2-13.5-10.5-16.6-16.8-2.5-4.9-2.8-6.8-2.8-15.1 0-8.9.2-9.9 3.4-15.8 4.2-7.7 11.4-14.4 18.4-17.1 7.4-2.9 21.2-2.6 27.9.7zM89 210.9c0 .4-1.3 5.9-3 12.2-4.9 19-8.9 45.2-10.6 69.1l-.7 9.8H56.9c-9.9 0-17.9-.3-17.9-.8 0-.4.7-6.4 1.5-13.2 2.7-23.7 7.8-44.9 15.7-66.2l4-10.7 8.2-.4c17.6-.7 20.6-.7 20.6.2zm100.3-.2c.3.5-.1 4.8-.9 9.8-1.7 11.5-5.2 50-6.2 67.5l-.7 13.5-34.4.3-34.4.2.7-10.2c1.4-20.2 6.4-49.2 12.2-71l2.7-9.8 24.6-.3c13.5-.1 27.2-.3 30.3-.5 3.1-.1 5.9.1 6.1.5zm223.2 1.5c2.2 10.2 6.3 51.5 7.2 73.5l.6 16.3H339v-91l24.3-.3c13.3-.1 29.7-.3 36.4-.5 12-.2 12.3-.1 12.8 2zm99.7.1c1 1.7 6.5 23.2 8.7 34.2 4.1 21.1 7.5 54.4 5.6 55.1-.5.2-16.1.3-34.5.2l-33.5-.3-.7-16.6c-.6-16.5-2.7-39.7-5.4-60.3-.8-6.1-1.4-11.8-1.4-12.8 0-1.8 1.1-1.9 30.3-1.2 18.9.4 30.5 1.1 30.9 1.7zM301 256.5V302h-81.2l.6-13.8c1.3-24.8 5-64.1 7.2-74.5l.6-2.7H301v45.5zm280.6-41.8c3.9 9.2 11.4 33.9 13.8 45.3 2.6 12.7 5.6 33.7 5.6 39.1v2.9h-17.4c-19.7 0-18.6.5-18.6-8.8 0-13.6-5.4-48.9-10.9-71.2l-2.7-11H580l1.6 3.7zm603.7 12.7c7.1 3.6 13 9.9 16.5 17.4 2.3 4.8 2.7 7.1 2.7 14.2 0 7.2-.4 9.4-2.9 14.7-6.7 14.6-22.9 23.3-38 20.3-18.5-3.6-30.8-19.4-29.3-37.7 1-12.9 10.3-25.6 22-30.2 8.1-3.2 21.2-2.6 29 1.3zM75.7 354.5c1.6 19.4 5.6 44.5 9.9 61.4 1.8 7.4 3.2 13.6 3.1 13.7-.1.1-6.4.5-13.9.9l-13.8.7-2-4.7c-9.1-21.3-17.5-55.2-19.5-79.3l-.7-8.2 17.8.2 17.9.3 1.2 15zm106.5 0c.8 15.8 4 49.5 6.2 65.5.8 5.2 1.2 9.8.9 10.2-.2.5-13.9.8-30.3.8h-29.9l-2.5-8.3c-6.4-21.2-11.4-49.5-13.2-74l-.7-9.7 34.4.2 34.4.3.7 15zM301 385v46h-35.9c-23.6 0-36.2-.4-36.6-1-2.1-3.4-8.5-69.8-8.5-87.7V339h81v46zm118.7-29.8c-.9 21-5.1 64.1-7.2 73.6l-.5 2.2-36.3-.2-36.2-.3-.3-45.8-.2-45.7h81.3l-.6 16.2zm107.5-8.7c-.8 18.2-6 48.7-12.4 72l-3.3 12-30.4.3-30.4.2.7-5.2c.3-2.9 1.3-10.3 2.1-16.3 1.7-13.5 4.5-50.6 4.5-61.3 0-4.3.3-8.2.7-8.5.4-.4 16-.6 34.7-.5l34.1.3-.3 7zm73.8-3.8c0 5.9-3.6 28.6-6.5 41.8-3.1 13.7-6.2 24-11.2 37.2l-3.6 9.3h-13.8c-11.4 0-13.9-.3-13.9-1.4 0-.8 1.3-7 3-13.8 4-16.6 6.6-32.6 8.6-52 .8-9 1.8-18.2 2-20.6l.5-4.2H601v3.7zM110.3 487.2c5.3 10.6 13.2 25.3 17.6 32.6l8 13.3-11.6-10.8c-12-11.2-21.9-22.3-31.5-35.4C86.3 478.2 81 470 81 468.8c0-.4 4.4-.8 9.9-.8h9.8l9.6 19.2zm88.3-8.7c2.9 12.7 8 29.6 13.8 45.4 2.5 6.9 4.6 12.8 4.6 13.3 0 .4-6.4.8-14.2.8l-14.3-.1-16-21.8c-11.4-15.5-17.8-25.4-22.2-34.1-3.5-6.8-6.3-12.7-6.3-13.2 0-.4 11.8-.7 26.2-.6l26.1.3 2.3 10zm103.2 24.7l.2 34.8h-43.1l-1.5-3.5c-7.8-18.8-21.4-60.3-21.4-65.4 0-.8 9.8-1 32.8-.9l32.7.3.3 34.7zM404 469.6c0 6-10.5 40.7-17.8 58.4l-3.8 9.5-21.7.3-21.7.2v-70h32.5c28.8 0 32.5.2 32.5 1.6zm93-1c0 1.9-13.2 25.9-20 36.3-13.4 20.4-22.5 31.7-26.1 32.5-5 1-26.9.7-26.9-.3 0-.6 1.3-4.7 3-9.3 4.2-11.6 10.2-32.2 13.5-45.8 1.5-6.3 2.9-12.1 3.1-12.8.3-.9 6.5-1.2 26.9-1.2 14.6 0 26.5.3 26.5.6zm61.9 1.6c-2.3 4.5-14.4 21.5-21.2 29.8-7.3 8.9-31.6 33.4-32.4 32.7-.2-.3 3.3-6.5 7.8-13.8 7.8-12.8 19-34.3 23.6-45.7l2.2-5.2h21.2l-1.2 2.2zm709.4 37.3c6.8 3.3 14 10.6 17 17.3 1.8 3.8 2.2 6.5 2.2 14.7 0 8.6-.3 10.6-2.4 14.5-5.5 10.5-12.7 16.4-23.5 19.5-25 7.2-49.6-17.1-43.2-42.5 2.9-11.4 10.4-20 21.5-24.7 8-3.4 20.1-2.9 28.4 1.2zM235.5 577c.3.6-.1.7-.9.4-1.8-.7-2.1-1.4-.7-1.4.6 0 1.3.4 1.6 1zm65.5 9c0 9.8-.1 10-2 9-2.7-1.5-13-11.7-15.9-15.8l-2.2-3.2H301v10zm56.1-6.3c-5.4 6.7-7.5 8.9-11.6 12-6.9 5.1-6.5 5.4-6.5-5.6V576h21.2l-3.1 3.7zm845.6 203.5c8.1 3 17.1 12.1 20.2 20.3 1.8 4.8 2.2 7.5 1.9 14-.6 14.2-7.7 24.8-20.6 30.8-5.5 2.6-7.7 3.1-14.1 3-18.1 0-31.9-11.6-35.2-29.5-3.1-17.1 7.9-34.6 25.1-39.9 5.3-1.6 16.8-1 22.7 1.3zM160.5 870.5c10.7 2.8 18.2 9 23.5 19.5 1.8 3.3 2.5 6.7 2.8 13 .6 11.8-1.9 18.3-10.2 26.6-8.1 8.1-14.8 10.7-26.1 10.2-14.2-.6-24.8-7.7-30.8-20.6-2.6-5.6-3.1-7.7-3-14.1.1-17 10.2-30.2 26.3-34.5 7.2-1.9 10.3-1.9 17.5-.1zm925 94.9c15.7 7.2 24.2 24.3 20.1 40.6-6.9 27.3-41.1 36.2-60.2 15.8-6.3-6.7-8.7-12.5-9.2-22.3-.5-9.2 1.6-16.1 6.9-23.3 9.3-12.7 27.9-17.5 42.4-10.8zm-392.3 57.8c7.2 3.3 14.2 10.3 17.6 17.6 2.3 4.9 2.7 7 2.7 14.7 0 7.8-.4 9.7-2.8 14.7-3.6 7.4-10.2 13.9-17.5 17.4-4.9 2.5-6.9 2.8-14.7 2.8-7.8 0-9.8-.3-14.7-2.8-7.3-3.5-13.9-10-17.5-17.4-2.4-5-2.8-6.8-2.8-14.7 0-9.9 1.8-15.3 7.4-22.4 9.7-12.2 27.9-16.5 42.3-9.9z"/><path d="M736 666v40h92v95h74l-.2-87.3-.3-87.2-82.7-.3-82.8-.2v40zm-310.3-21.8c9.7 25 9.5 19.8 1.5 46l-6.9 22.8h37.5l2-7.8c1.2-4.2 2.9-11.1 4-15.2l1.8-7.5 1.8 5.5c1 3 3.6 9.9 5.8 15.2l4 9.8h17.9c9.9 0 17.9-.2 17.9-.5 0-.2-4.1-9.6-9.1-20.7-5-11.2-9.6-21.5-10.1-23-.8-2.2.1-5.6 5.6-20.4 3.6-9.7 6.6-17.8 6.6-18 0-.3-7.3-.3-16.2-.2l-16.1.3-3.6 10.2c-2 5.6-3.9 10.5-4.2 10.8-.4.3-2.4-4.4-4.5-10.5l-3.8-11h-37.4l5.5 14.2zm91.3 27.3V713h39v-83h-39v41.5zm53 0V713h39v-83h-39v41.5zm-150.8 89.7l.3 40.3h191l.3-40.3.2-40.2H419l.2 40.2z"/></svg>